<svg height="24.609" viewBox="0 0 24.609 24.609" width="24.609" xmlns="http://www.w3.org/2000/svg"><path d="m0 24.61v-11.359h.036q-.036-.469-.036-.946a12.3 12.3 0 1 1 12.62 12.3z" fill="#273b8f"/><g fill="#fff"><path d="m674.949 256.776c.953-.953 2.721-2.672 3.359-3.31.414-.414 1.7 1.041.218 2.506-.579.572-1.64 1.69-2.166 2.215a1 1 0 0 1 -1.412-1.412z" transform="translate(-660.105 -239.671)"/><path d="m491.429 96c-1.282 1.3-6.378 6.392-6.378 6.392l-.049.042-.075.075a.5.5 0 0 1 -.711-.711s2.161-2.2 2.9-2.9c.845-.8-.2-2.111-.521-1.778-.78.8-2.558 2.541-3.684 3.667a2.263 2.263 0 0 0 3.2 3.2l5.645-5.645c1.69-1.691.098-2.771-.327-2.342z" transform="translate(-476.94 -89.708)"/><path d="m635.476 175.684c.954-.953 4.744-4.755 5.382-5.392.414-.414 1.754 1.11.219 2.646-.576.576-3.663 3.631-4.189 4.157a1.017 1.017 0 0 1 -1.441-.012 1 1 0 0 1 .029-1.399z" transform="translate(-622.508 -160.474)"/><path d="m595.9 109.7 6.723-6.723c.422-.422 1.84 1 .254 2.589-.388.388-5.04 5.019-5.566 5.546a1 1 0 1 1 -1.411-1.412z" transform="translate(-584.826 -96.371)"/></g></svg>