<svg xmlns="http://www.w3.org/2000/svg" width="21" height="21" viewBox="0 0 21 21"><defs><style>.a,.d{fill:none;}.a{stroke:#fff;}.b{fill:#fff;}.c{stroke:none;}</style></defs><g transform="translate(21) rotate(90)"><g class="a" transform="translate(0 0)"><rect class="c" width="21" height="21" rx="10.5"/><rect class="d" x="0.5" y="0.5" width="20" height="20" rx="10"/></g><path class="b" d="M3.83,8.065.117,4.4a.391.391,0,0,1,0-.559L3.83.168a.585.585,0,0,1,.82,0,.568.568,0,0,1,0,.81L1.474,4.117,4.65,7.255a.569.569,0,0,1,0,.81.585.585,0,0,1-.82,0" transform="translate(6.561 13.385) rotate(-90)"/></g></svg>