<svg xmlns="http://www.w3.org/2000/svg" xmlns:xlink="http://www.w3.org/1999/xlink" width="143" height="143" viewBox="0 0 143 143">
  <defs>
    <clipPath id="clip-History">
      <rect width="143" height="143"/>
    </clipPath>
  </defs>
  <g id="History" clip-path="url(#clip-History)">
    <g id="iconspace_Folder-tick_25px" transform="translate(-11.613 -4.613)">
      <path id="path" d="M0,0H166.227V166.227H0Z" fill="none" fill-rule="evenodd"/>
      <path id="path-2" data-name="path" d="M48.032,9.649h70.327a23.272,23.272,0,0,1,23.272,23.272v73.14a23.272,23.272,0,0,1-23.272,23.272H25.272A23.272,23.272,0,0,1,2,106.061v-82.2A20.858,20.858,0,0,1,22.858,3H37.5a9.974,9.974,0,0,1,7.3,3.176ZM54.225,16.3l11.4,12.24A3.324,3.324,0,0,0,68.059,29.6h66.59a16.628,16.628,0,0,0-16.29-13.3Zm80.756,19.947H68.059a9.973,9.973,0,0,1-7.3-3.176L39.931,10.708A3.324,3.324,0,0,0,37.5,9.649H22.858A14.209,14.209,0,0,0,8.649,23.858v82.2a16.623,16.623,0,0,0,16.623,16.623h93.087a16.623,16.623,0,0,0,16.623-16.623ZM54.219,77.114,64.89,87.786,89.167,57.441a3.324,3.324,0,1,1,5.192,4.154L67.762,94.84a3.325,3.325,0,0,1-4.947.274l-13.3-13.3a3.325,3.325,0,0,1,4.7-4.7Z" transform="translate(11.298 16.947)" fill="#fff"/>
    </g>
  </g>
</svg>
