<svg xmlns="http://www.w3.org/2000/svg" xmlns:xlink="http://www.w3.org/1999/xlink" width="39.47" height="44" viewBox="0 0 39.47 44"><defs><style>.a{fill:#273b8f;}.b{clip-path:url(#a);}.c{opacity:0.667;}.d{clip-path:url(#b);}</style><clipPath id="a"><path class="a" d="M5.77,33.049a20.136,20.136,0,0,1,0-28.219A19.636,19.636,0,0,1,13.159.112a1.91,1.91,0,0,1,1.283,3.6,15.741,15.741,0,0,0-5.952,3.8,16.315,16.315,0,0,0,0,22.854,15.751,15.751,0,0,0,22.489,0,16.315,16.315,0,0,0,0-22.854,15.818,15.818,0,0,0-5.947-3.8,1.91,1.91,0,1,1,1.286-3.6A19.64,19.64,0,0,1,33.7,4.831a20.131,20.131,0,0,1,0,28.219,19.572,19.572,0,0,1-27.928,0Z"/></clipPath><clipPath id="b"><path class="a" d="M0,12.094V1.909a1.91,1.91,0,0,1,3.82,0V12.094a1.91,1.91,0,1,1-3.82,0Z"/></clipPath></defs><g transform="translate(-272.75 -362.75)"><g transform="translate(272.75 367.843)"><g class="b" transform="translate(0 0)"><rect class="a" width="64.934" height="64.373" transform="translate(-12.731 -12.733)"/></g></g><g class="c" transform="translate(290.575 362.75)"><g class="d"><rect class="a" width="29.284" height="39.47" transform="translate(-12.731 -12.733)"/></g></g></g></svg>