<svg xmlns="http://www.w3.org/2000/svg" xmlns:xlink="http://www.w3.org/1999/xlink" width="146" height="138" viewBox="0 0 146 138">
  <defs>
    <clipPath id="clip-path">
      <path id="Intersection_68" data-name="Intersection 68" d="M83.8,136.1,73,114.665,62.207,136.1a3.5,3.5,0,0,1-4.668,1.54,3.431,3.431,0,0,1-1.552-4.626L67.375,110.4H31.285A24.239,24.239,0,0,1,6.958,86.249V27.6H3.479A3.466,3.466,0,0,1,0,24.15v-13.8A10.4,10.4,0,0,1,10.43,0H135.57A10.4,10.4,0,0,1,146,10.352v13.8a3.466,3.466,0,0,1-3.479,3.453h-3.473V86.249a24.241,24.241,0,0,1-24.333,24.15H78.625l11.388,22.61a3.426,3.426,0,0,1-1.552,4.626A3.49,3.49,0,0,1,83.8,136.1ZM13.909,86.249A17.31,17.31,0,0,0,31.285,103.5h83.43A17.315,17.315,0,0,0,132.1,86.249V27.6H13.909Zm-6.951-75.9V20.7H139.049V10.352A3.466,3.466,0,0,0,135.57,6.9H10.43A3.461,3.461,0,0,0,6.958,10.352Zm90.375,75.9v-41.4a3.476,3.476,0,0,1,6.952,0v41.4a3.476,3.476,0,0,1-6.952,0Zm-27.806,0v-27.6a3.476,3.476,0,0,1,6.951,0v27.6a3.476,3.476,0,0,1-6.951,0Zm-27.812,0v-13.8a3.476,3.476,0,0,1,6.951,0v13.8a3.476,3.476,0,0,1-6.951,0Z" fill="#fff"/>
    </clipPath>
  </defs>
  <g id="Group_2526" data-name="Group 2526" transform="translate(-0.183)">
    <g id="Group_2525" data-name="Group 2525" transform="translate(0.183)" clip-path="url(#clip-path)">
      <rect id="Rectangle_2335" data-name="Rectangle 2335" width="213" height="208" transform="translate(-35 -35)" fill="#fff"/>
    </g>
  </g>
</svg>
