<svg xmlns="http://www.w3.org/2000/svg" xmlns:xlink="http://www.w3.org/1999/xlink" width="143" height="143" viewBox="0 0 143 143">
  <defs>
    <clipPath id="clip-Progress">
      <rect width="143" height="143"/>
    </clipPath>
  </defs>
  <g id="Progress" clip-path="url(#clip-Progress)">
    <g id="iconspace_Diagram-Arrow-Up_25px" transform="translate(-10.783 -10.783)">
      <path id="path" d="M0,0H164.567V164.567H0Z" fill="none" fill-rule="evenodd"/>
      <path id="path-2" data-name="path" d="M19.874,18.583a3.292,3.292,0,0,0-3.291,3.291V74.535a3.292,3.292,0,0,0,3.291,3.291H33.039a3.292,3.292,0,0,0,3.291-3.291V21.874a3.292,3.292,0,0,0-3.291-3.291Zm0-6.583H33.039a9.874,9.874,0,0,1,9.874,9.874V74.535a9.874,9.874,0,0,1-9.874,9.874H19.874A9.874,9.874,0,0,1,10,74.535V21.874A9.874,9.874,0,0,1,19.874,12Z" transform="translate(55.827 66.992)" fill="#ededed"/>
      <path id="path-3" data-name="path" d="M12.874,21.583a3.292,3.292,0,0,0-3.291,3.291V57.787a3.292,3.292,0,0,0,3.291,3.291H26.039a3.292,3.292,0,0,0,3.291-3.291V24.874a3.292,3.292,0,0,0-3.291-3.291Zm0-6.583H26.039a9.874,9.874,0,0,1,9.874,9.874V57.787a9.874,9.874,0,0,1-9.874,9.874H12.874A9.874,9.874,0,0,1,3,57.787V24.874A9.874,9.874,0,0,1,12.874,15Z" transform="translate(16.748 83.74)" fill="#fff"/>
      <path id="path-4" data-name="path" d="M26.874,15.583a3.292,3.292,0,0,0-3.291,3.291V91.283a3.292,3.292,0,0,0,3.291,3.291H40.039a3.292,3.292,0,0,0,3.291-3.291V18.874a3.292,3.292,0,0,0-3.291-3.291Zm0-6.583H40.039a9.874,9.874,0,0,1,9.874,9.874V91.283a9.874,9.874,0,0,1-9.874,9.874H26.874A9.874,9.874,0,0,1,17,91.283V18.874A9.874,9.874,0,0,1,26.874,9Z" transform="translate(94.905 50.244)" fill="#fff"/>
      <path id="Combined-Shape" d="M109.859,12.565l-12.45-4.15A3.291,3.291,0,0,1,99.49,2.17l19.718,6.573a3.291,3.291,0,0,1,2.111,4.173l-6.582,19.748a3.291,3.291,0,1,1-6.245-2.082l3.985-11.955L7.832,74.028a3.291,3.291,0,0,1-3.08-5.818Z" transform="translate(16.748 11.165)" fill="#fff"/>
    </g>
  </g>
</svg>
