<svg xmlns="http://www.w3.org/2000/svg" width="24.609" height="24.609" viewBox="0 0 24.609 24.609"><defs><style>.a{fill:#898989;}.b{fill:#fff;}</style></defs><g transform="translate(-517 -105)"><path class="a" d="M0,24.61V13.251H.036Q0,12.782,0,12.305a12.3,12.3,0,1,1,12.62,12.3v0Z" transform="translate(517 105)"/><g transform="translate(522.365 111.279)"><path class="b" d="M674.949,256.776c.953-.953,2.721-2.672,3.359-3.31.414-.414,1.7,1.041.218,2.506-.579.572-1.64,1.69-2.166,2.215a1,1,0,0,1-1.412-1.412Z" transform="translate(-665.47 -245.87)"/><path class="b" d="M491.429,96c-1.282,1.3-6.378,6.392-6.378,6.392l-.049.042-.075.075a.5.5,0,0,1-.711-.711s2.161-2.2,2.9-2.9c.845-.8-.2-2.111-.521-1.778-.78.8-2.558,2.541-3.684,3.667a2.263,2.263,0,0,0,3.2,3.2l5.645-5.645C493.446,96.651,491.854,95.571,491.429,96Z" transform="translate(-482.305 -95.907)"/><path class="b" d="M635.476,175.684c.954-.953,4.744-4.755,5.382-5.392.414-.414,1.754,1.11.219,2.646-.576.576-3.663,3.631-4.189,4.157a1.017,1.017,0,0,1-1.441-.012A1,1,0,0,1,635.476,175.684Z" transform="translate(-627.873 -166.673)"/><path class="b" d="M595.9,109.7l6.723-6.723c.422-.422,1.84,1,.254,2.589-.388.388-5.04,5.019-5.566,5.546A1,1,0,1,1,595.9,109.7Z" transform="translate(-590.191 -102.57)"/></g></g></svg>